<svg id="Layer_1" data-name="Layer 1" xmlns="http://www.w3.org/2000/svg" viewBox="0 0 720 720"><defs><style>.cls-1{fill:#7f7f7f;}.cls-1,.cls-10,.cls-3,.cls-4,.cls-5,.cls-6,.cls-7,.cls-8{fill-rule:evenodd;}.cls-2{fill:#385d8a;}.cls-3{fill:#00b050;}.cls-4{fill:#f9f;}.cls-6{fill:#ff0;}.cls-7{fill:red;}.cls-8,.cls-9{fill:#fff;}.cls-10{fill:#0070c0;}</style></defs><title>Artboard 2</title><path class="cls-1" d="M160.06,348.38,149.48,361.6l-17.37,24.9-22.79,44.88L98.67,452.24l3.75,7.68,22.25,16.25,15.4,10.22,14.3,3.66.74,9.76,9.75,7.34L181,517.91l15.68,1.19,39.78,5.69,13.21-.19L260.65,519l3.75-3.1,3.22-22.31,5.7-20.92.36-5.9,5-4.88,5.6-12.16,33.48-53.41L302.59,382l-18.78-13-31.52-8.64L205,348.93l-45-.55Z"/><path class="cls-2" d="M236.49,525.79h-.14l-39.78-5.69L181,518.91a.9.9,0,0,1-.47-.17L164.31,508l-9.8-7.38a1,1,0,0,1-.4-.72l-.68-9-13.61-3.48a1,1,0,0,1-.3-.14L124.12,477l-22.29-16.27a1.23,1.23,0,0,1-.31-.37l-3.75-7.68a1,1,0,0,1,0-.89l10.65-20.86,22.78-44.88a.83.83,0,0,1,.08-.12L148.66,361l10.62-13.27a1,1,0,0,1,.8-.38l45,.55a.83.83,0,0,1,.22,0l47.24,11.4L284.07,368a1,1,0,0,1,.31.15l18.78,13,.12.1,15.18,14.29a1,1,0,0,1,.16,1.26l-33.44,53.35-5.57,12.1a1,1,0,0,1-.21.3l-4.74,4.61-.34,5.51a1.62,1.62,0,0,1,0,.2l-5.69,20.87L265.39,516a1,1,0,0,1-.35.62l-3.75,3.1-.18.12-11,5.65a1,1,0,0,1-.44.11l-13.21.19Zm-55.12-8.86,15.42,1.17,39.77,5.69,12.89-.19,10.65-5.49,3.36-2.78,3.17-21.93,0-.12,5.67-20.83.35-5.79a1.09,1.09,0,0,1,.3-.66l4.89-4.75,5.52-12,.06-.11,33-52.71L302,382.76l-18.58-12.87L252,361.29l-47.1-11.36-44.38-.54-10.28,12.83L133,387l-22.76,44.82L99.79,452.25l3.42,7,22.05,16.1,15.22,10.1,14.14,3.62a1,1,0,0,1,.75.9l.7,9.3,9.4,7.07Z"/><polygon class="cls-3" points="276.28 470.75 306.43 475.49 326.88 479.55 343.49 480.22 351.27 480.84 362.54 486.25 372.41 491.31 379.16 496.13 385.64 502.72 387.42 509.91 386.3 512.4 384.19 515.82 378.56 517.72 360.23 514.84 352.85 515.5 330.64 518.07 306.09 519.3 278.96 517.7 263.06 520.16 264.2 509.8 266.93 494 273.77 479.8 276.28 470.75 276.28 470.75 276.28 470.75"/><path d="M263.06,523.16a3,3,0,0,1-2.08-.83,3,3,0,0,1-.9-2.49l1.14-10.37,0-.18L264,493.48a3.18,3.18,0,0,1,.26-.79L271,478.74l2.44-8.8a3,3,0,0,1,3.36-2.16l30.15,4.74.12,0,20.21,4,16.39.67h.11l7.78.62a3.2,3.2,0,0,1,1.06.28l11.27,5.41,9.94,5.1a2.85,2.85,0,0,1,.37.23l6.75,4.82a2.18,2.18,0,0,1,.4.34l6.48,6.59a3,3,0,0,1,.77,1.38l1.78,7.19a3,3,0,0,1-.18,1.95L389,513.63a2.21,2.21,0,0,1-.18.34l-2.11,3.43a3,3,0,0,1-1.59,1.26l-5.64,1.91a3.12,3.12,0,0,1-1.42.12l-18-2.83-7,.63L331,521.05h-.19l-24.55,1.23h-.33l-26.81-1.58-15.58,2.42A3.55,3.55,0,0,1,263.06,523.16Zm4.11-12.94-.7,6.38,12-1.87a3.33,3.33,0,0,1,.63,0l27,1.59,24.29-1.22,22.12-2.55,7.45-.67a3,3,0,0,1,.73,0l17.6,2.77,3.91-1.32,1.44-2.34.62-1.37-1.34-5.38-5.71-5.82-6.37-4.54-9.67-5-10.69-5.12-7.16-.57-16.56-.67a3.78,3.78,0,0,1-.47-.06l-20.38-4.05-27.45-4.31-1.8,6.48a2.92,2.92,0,0,1-.19.49l-6.65,13.82Z"/><polygon class="cls-4" points="187.07 424.65 176.89 418.09 173.28 413.79 170.09 401.95 173.91 388.21 176.59 376.54 172.82 370.85 171.67 370.03 165.21 363.92 164.37 363.32 161.18 356.33 160.02 351.01 160.26 350.03 163.57 344.1 168.47 339.65 176.8 337.18 189.34 337.84 206.36 343.53 215.46 349.33 216.49 355.48 208.65 372.92 207.97 374.85 193.8 408.27 187.07 424.65 187.07 424.65 187.07 424.65"/><path class="cls-2" d="M187.07,425.65a1,1,0,0,1-.55-.16l-10.17-6.56a.83.83,0,0,1-.22-.2l-3.61-4.3a.93.93,0,0,1-.2-.38l-3.19-11.83a1,1,0,0,1,0-.53L173,387.94l2.57-11.21-3.43-5.17-1-.71-.1-.09-6.42-6.06-.78-.56a.92.92,0,0,1-.33-.4l-3.19-7a1.18,1.18,0,0,1-.07-.2l-1.15-5.31a.86.86,0,0,1,0-.45l.24-1a.87.87,0,0,1,.1-.25l3.31-5.93a1,1,0,0,1,.2-.25l4.9-4.45a.94.94,0,0,1,.39-.22l8.32-2.47a1.27,1.27,0,0,1,.34,0l12.54.66a.86.86,0,0,1,.27.05l17,5.69a.74.74,0,0,1,.22.1l9.11,5.81a1,1,0,0,1,.45.67l1,6.15a1,1,0,0,1-.08.57l-7.83,17.45-.66,1.85-14.19,33.48L188,425a1,1,0,0,1-.62.58A1,1,0,0,1,187.07,425.65Zm-9.51-8.32,9,5.83,6.28-15.27,14.17-33.43.66-1.88,7.74-17.24-.9-5.41-8.63-5.49-16.77-5.61-12.23-.64L169,340.54l-4.61,4.19-3.16,5.67-.15.62,1.08,5,3,6.66.62.44a.43.43,0,0,1,.1.09l6.42,6.06,1.09.77a1.07,1.07,0,0,1,.25.27l3.78,5.68a1,1,0,0,1,.14.78l-2.69,11.67L171.13,402l3.06,11.35Z"/><polygon class="cls-5" points="321.37 517.7 326.5 510.51 329.11 512.37 330.94 510.72 332.72 517.91 321.37 517.7 321.37 517.7 321.37 517.7"/><path d="M332.72,518.91h0l-11.35-.21a1,1,0,0,1-.8-1.58l5.13-7.19a1,1,0,0,1,.65-.41,1.05,1.05,0,0,1,.75.17l2,1.4,1.24-1.11a1,1,0,0,1,1-.21,1,1,0,0,1,.68.71l1.77,7.19a1,1,0,0,1-.19.86A1,1,0,0,1,332.72,518.91Zm-9.44-2.18,8.16.16-1.07-4.31-.59.54a1,1,0,0,1-1.25.07l-1.8-1.29Z"/><path d="M244.24,528.52l-.32,0-60.1-6.4a2.94,2.94,0,0,1-.59-.12l-11.4-3.61A3.3,3.3,0,0,1,171,518l-10.77-7.68a3,3,0,0,1-.74-.77L152.38,499a2.92,2.92,0,0,1-.4-.88l-.57-2.06-14.29-4.65a2.91,2.91,0,0,1-.51-.22l-15.44-8.43-17.42-9.21a3.18,3.18,0,0,1-.6-.41l-10.93-9.74a3,3,0,0,1-.88-1.38L90,457.46a3,3,0,0,1,.32-2.41L96,445.67l26.89-50.43,15.32-27.86a3.62,3.62,0,0,1,.27-.41L151.89,350l8.7-10.36a3,3,0,0,1,1-.8L174.24,333a3,3,0,0,1,1.64-.26l14.89,1.91a3,3,0,0,1,.92.27l13.48,6.46,4.83,1,6.32-4.58a2.91,2.91,0,0,1,.88-.44l9.16-2.82a3.12,3.12,0,0,1,.8-.14l7-.19a2.4,2.4,0,0,1,.46,0l7.15.91a3.2,3.2,0,0,1,.68.16l7.69,2.9a3.17,3.17,0,0,1,.9.54l4.22,3.66a2.73,2.73,0,0,1,.34.34l5.86,7.05,9.5,9.52,13.4,5.1,11.05-.38a2.84,2.84,0,0,1,.77.08l14,3.19a3,3,0,0,1,1.51.85l8.54,9a3,3,0,0,1,.8,2.39l-1.48,13.47a3,3,0,0,1-.43,1.25l-34.7,55.94-.11.16-1.15,1.61-7.9,20.88-3.78,13-4.88,18L266.19,516l1-.29,1.67,5.76-23.78,6.92A2.94,2.94,0,0,1,244.24,528.52Zm-59.49-12.35,56.86,6.05-.33-.91,15.33-5.53a3.18,3.18,0,0,1,.53-.14l3.08-.5.33-11.76a3.38,3.38,0,0,1,.1-.71l5-18.38,3.83-13.15a1.42,1.42,0,0,1,.07-.22l8.08-21.35a2.83,2.83,0,0,1,.36-.69l1.32-1.84,34.29-55.28,1.26-11.41L307.91,373l-12.71-2.9-11.27.39a2.92,2.92,0,0,1-1.17-.2l-14.57-5.55a3,3,0,0,1-1.06-.68l-10-10.07-.18-.2-5.79-7-3.63-3.14-6.85-2.59-6.58-.83-6.32.18-8.3,2.56-7,5.07a3,3,0,0,1-2.39.51l-6.48-1.4a3.09,3.09,0,0,1-.67-.22l-13.37-6.41L176,338.84l-11.23,5.21-8.21,9.78-13.17,16.66L128.2,398.1l-26.91,50.47-.09.15L96.13,457l.72,2.41,10,8.92L124,477.42l15.23,8.32,15.56,5.07a3,3,0,0,1,2,2.05l.87,3.14,6.52,9.7,9.94,7.09Z"/><polygon class="cls-5" points="285.52 472.08 288.39 477.74 293.05 473.5 323.8 485.25 329.88 497.47 328.78 485.18 327.47 479.64 298.69 473.9 295.88 473.22 285.52 472.08 285.52 472.08 285.52 472.08"/><path d="M329.88,498.47a1,1,0,0,1-.9-.56L323.08,486l-29.81-11.38-4.21,3.82a1,1,0,0,1-.85.24,1,1,0,0,1-.71-.53l-2.87-5.66a1,1,0,0,1,.07-1,1,1,0,0,1,.93-.43L296,472.23l.13,0,2.8.68,28.75,5.73a1,1,0,0,1,.77.75l1.31,5.54,0,.14,1.09,12.29a1,1,0,0,1-.72,1.05A.84.84,0,0,1,329.88,498.47ZM300.55,475.3l23.61,9a1,1,0,0,1,.54.49l3.71,7.47-.62-6.93-1.14-4.84Zm-13.3-2,1.44,2.85,2.63-2.4Z"/><polygon class="cls-6" points="201.28 443.15 192.99 439.15 188.25 432.31 188.94 421.65 207.61 374.99 219.74 342.88 240.34 339.88 252.28 344.17 260.58 350.86 259.74 355.26 250.37 371.65 218.45 419.63 212.37 427.6 215.25 432.73 209.03 439.83 201.28 443.15 201.28 443.15 201.28 443.15"/><path class="cls-2" d="M201.29,444.15a1,1,0,0,1-.44-.1l-8.3-4a1,1,0,0,1-.39-.33l-4.73-6.84a1,1,0,0,1-.18-.63l.69-10.66a.82.82,0,0,1,.07-.31l18.67-46.66,12.13-32.09a1,1,0,0,1,.79-.64l20.59-3a1,1,0,0,1,.48,0l11.94,4.29a.9.9,0,0,1,.29.16l8.3,6.69a1,1,0,0,1,.36,1l-.83,4.4a1.05,1.05,0,0,1-.12.31l-9.38,16.38-31.95,48.05-5.71,7.5,2.55,4.55a1,1,0,0,1-.12,1.15l-6.21,7.1a.93.93,0,0,1-.36.26l-7.75,3.32A1.09,1.09,0,0,1,201.29,444.15Zm-7.63-5.78,7.65,3.68,7.12-3.05,5.6-6.39-2.53-4.52a1,1,0,0,1,.08-1.09l6.07-8,31.88-47.94,9.26-16.18.69-3.65-7.7-6.2-11.55-4.15-19.76,2.88-11.93,31.55-18.62,46.54L189.27,432Z"/><path d="M216.65,459.16a3,3,0,0,1-1.68-.51l-9.31-6.31a3.13,3.13,0,0,1-.85-.89l-1.91-3-6-1a3.09,3.09,0,0,1-.91-.32l-9.49-5.12a3.1,3.1,0,0,1-1.26-1.3l-2.3-4.6a3,3,0,0,1-.32-1.52l.34-6a3,3,0,0,1,.19-.89l11.43-30.31,0-.12,18.47-43.37-.76-1.54-2.91-1.82a2.94,2.94,0,0,1-1.36-1.95,3,3,0,0,1,.5-2.33l3.11-4.36a3,3,0,0,1,1.21-1l11.61-5.2a3.07,3.07,0,0,1,.85-.24l14.09-1.78a3,3,0,0,1,1.76.31l10.08,5.22a2.77,2.77,0,0,1,.37.22l7.62,5.44.34.28,5.26,5.07a3,3,0,0,1,.92,2.32l-1.08,20a2.9,2.9,0,0,1-.35,1.25l-7.89,14.76a3.42,3.42,0,0,1-.26.4l-20.92,27.49a4.12,4.12,0,0,1-.28.31L220.77,430.7l-4,6.44L215.42,447l3.92,7.85a3,3,0,0,1-2.69,4.34Zm-18.24-17.62,6.84,1.19a3,3,0,0,1,2,1.36l2.06,3.27a2.64,2.64,0,0,1,0-.28l1.55-11.39a3,3,0,0,1,.43-1.18l4.53-7.28a3.42,3.42,0,0,1,.44-.55l14.34-14.18,20.65-27.13,7.47-13.95,1-17.91-4.11-4-7.28-5.19-9.06-4.69-12.73,1.61L216.09,346l-.78,1.1.93.58a3,3,0,0,1,1.11,1.22l1.74,3.55a3,3,0,0,1,.07,2.5l-19,44.57-11.24,29.83-.27,4.74,1.52,3.05Z"/><polygon class="cls-7" points="260.18 355.04 245.98 379.1 225.18 409.64 216.48 421.84 213.21 426.42 213.12 431.62 212.94 435.1 210.17 442.66 211.17 448.64 219.89 454.85 229.79 456.65 237.41 455.18 242.85 449.86 257.55 426.48 260.04 423 268.53 412.94 272.57 407.27 279.81 401.26 287.71 398.02 291.85 394.07 294.49 390.37 297.25 382.8 296.16 372.81 294.88 366.31 293.26 363.51 286.75 360.19 278.82 355.19 269.73 353.63 260.18 355.04 260.18 355.04 260.18 355.04"/><path d="M229.79,459.65a2.47,2.47,0,0,1-.54,0l-9.9-1.79a3.12,3.12,0,0,1-1.2-.51l-8.72-6.22a3,3,0,0,1-1.22-1.95l-1-6a3,3,0,0,1,.14-1.53l2.61-7.14.15-3,.09-5.14a3,3,0,0,1,.56-1.69l12-16.78,20.7-30.41,14.16-24a3,3,0,0,1,2.14-1.45l9.55-1.4a3,3,0,0,1,.94,0l9.09,1.55a3,3,0,0,1,1.1.42l7.82,4.93,6.39,3.26a3.08,3.08,0,0,1,1.23,1.17l1.62,2.8a3.1,3.1,0,0,1,.34.92l1.28,6.51a1.87,1.87,0,0,1,0,.25l1.1,10a3,3,0,0,1-.17,1.35l-2.76,7.56a2.76,2.76,0,0,1-.38.72l-2.64,3.7a3,3,0,0,1-.37.43l-4.13,3.95a2.93,2.93,0,0,1-.94.61l-7.47,3.07-6.6,5.46L271,414.68l-.15.19-8.41,10L260,428.15l-14.65,23.31a3.25,3.25,0,0,1-.44.54l-5.44,5.33a3,3,0,0,1-1.53.8l-7.63,1.47A3.43,3.43,0,0,1,229.79,459.65Zm-8.7-7.63,8.68,1.58,6.19-1.19L240.5,448,255,424.89l.1-.15,2.49-3.49a1.25,1.25,0,0,1,.15-.19l8.4-10,4-5.57a2.82,2.82,0,0,1,.53-.56l7.25-6a2.89,2.89,0,0,1,.77-.47l7.38-3,3.52-3.36,2.24-3.15,2.39-6.52-1-9.16L292,367.38l-.92-1.6-5.72-2.92-.24-.13L277.72,358l-8-1.37L262,357.8l-13.47,22.83-.1.16-20.8,30.54L216.2,427.4l-.08,4.27v.1l-.19,3.49a2.86,2.86,0,0,1-.17.87l-2.5,6.82.67,4Z"/><polygon class="cls-5" points="214.25 433.73 218.07 430.21 223.39 426.44 227.28 425.6 234.28 429.61 237.77 436.7 235.69 441.46 233.51 446.82 232.71 451.17 229.66 455.9 220.14 454.04 211.17 448.64 211.11 441.36 214.25 433.73 214.25 433.73 214.25 433.73"/><path d="M229.66,456.9h-.19L220,455a.93.93,0,0,1-.33-.12l-9-5.41a1,1,0,0,1-.49-.84l-.06-7.29a1.07,1.07,0,0,1,.07-.39l3.14-7.62a1,1,0,0,1,.25-.36l3.82-3.51.1-.08,5.32-3.77a.82.82,0,0,1,.37-.16l3.88-.85a1,1,0,0,1,.71.11l7,4a1,1,0,0,1,.4.43l3.49,7.09a1,1,0,0,1,0,.84l-2.09,4.76-2.12,5.24-.79,4.26a.89.89,0,0,1-.14.35l-3.05,4.74A1,1,0,0,1,229.66,456.9Zm-9.16-3.8,8.69,1.69,2.57-4,.77-4.16a.66.66,0,0,1,.06-.2l2.17-5.35,1.91-4.36-3.15-6.4-6.41-3.67-3.31.72L218.7,431l-3.61,3.33-3,7.23.06,6.52Z"/><polygon class="cls-8" points="213.38 440.02 217.48 434.72 222.3 432.57 228.13 441 229.44 444.24 226.98 449.06 223.68 450 216.24 445.68 213.38 440.02 213.38 440.02 213.38 440.02"/><path d="M223.68,451a1,1,0,0,1-.5-.14l-7.44-4.32a1,1,0,0,1-.39-.41l-2.86-5.66a1,1,0,0,1,.1-1.07l4.1-5.29a1,1,0,0,1,.38-.3l4.83-2.15a1,1,0,0,1,1.23.35l5.82,8.42a.75.75,0,0,1,.1.2l1.31,3.23a1,1,0,0,1,0,.83l-2.46,4.82a1,1,0,0,1-.62.51L224,451A1.35,1.35,0,0,1,223.68,451ZM217,445l6.82,4,2.47-.7,2.05-4-1.1-2.71L222,433.82l-3.83,1.71-3.56,4.6Z"/><polygon class="cls-5" points="250.24 422.91 245.07 421.86 239.75 421.02 236.48 418.69 235.3 416.2 236.38 414.67 240.03 414.64 243.73 417.28 247.37 419.55 250.24 422.91 250.24 422.91 250.24 422.91"/><path d="M250.24,423.91l-.2,0-5.17-1.06-5.28-.82a1.12,1.12,0,0,1-.42-.18l-3.27-2.33a1,1,0,0,1-.32-.38l-1.19-2.49a1,1,0,0,1,.09-1l1.09-1.53a1,1,0,0,1,.81-.42l3.64,0a1.07,1.07,0,0,1,.59.18l3.7,2.65,3.59,2.23a.9.9,0,0,1,.23.2l2.87,3.36a1,1,0,0,1,.1,1.16A1,1,0,0,1,250.24,423.91Zm-10.1-3.84,5.09.8,2.36.48-.88-1-3.51-2.19-3.49-2.49-2.81,0-.45.63.82,1.72Z"/><polygon class="cls-5" points="322.5 392.59 284.46 458.82 282.75 468.13 280.26 471.62 276.81 470.47 275.32 477.62 269.07 489.61 265.16 498.32 261.18 502.06 258.69 498.64 259.62 488.12 267.41 471.65 265.42 464.31 260.03 456.19 257.07 446.52 273.76 463.69 272.59 448.72 273.96 443.12 279.2 456.06 311.45 398.85 315.5 393.18 317.2 390.79 322.5 392.59 322.5 392.59 322.5 392.59"/><path d="M261.18,503.06h-.09a1,1,0,0,1-.72-.4l-2.49-3.42a1,1,0,0,1-.19-.68l.93-10.52a1,1,0,0,1,.09-.34l7.64-16.13-1.86-6.83-5.29-8a.91.91,0,0,1-.13-.26l-3-9.68a1,1,0,0,1,1.67-1L272.54,461l-.94-12.21a1.15,1.15,0,0,1,0-.32l1.37-5.6a1,1,0,0,1,.9-.76,1,1,0,0,1,1,.62l4.45,11,31.24-55.4.06-.09,5.75-8.06a1,1,0,0,1,1.14-.37l5.29,1.8a1,1,0,0,1,.61.59,1,1,0,0,1-.07.85l-37.95,66.09-1.68,9.14a.88.88,0,0,1-.17.4l-2.48,3.49a1,1,0,0,1-1.13.36l-2.39-.79-1.26,6.06a1.34,1.34,0,0,1-.09.26l-6.25,12-3.89,8.66a.9.9,0,0,1-.23.32l-4,3.74A1,1,0,0,1,261.18,503.06Zm-1.46-4.71,1.6,2.2,3-2.82,3.83-8.53,6.21-11.92,1.46-7a1,1,0,0,1,.48-.66,1,1,0,0,1,.82-.08l2.75.91,1.93-2.7,1.66-9.09a.84.84,0,0,1,.12-.31L321,393.14,317.59,392l-5.29,7.42-32.23,57.16a1,1,0,0,1-.94.51,1,1,0,0,1-.86-.63l-4.07-10.06-.6,2.43,1.15,14.81a1,1,0,0,1-.58,1,1,1,0,0,1-1.13-.22l-13.81-14.19,1.71,5.57,5.31,8a1.08,1.08,0,0,1,.13.29l2,7.34a1,1,0,0,1-.06.69l-7.72,16.31Z"/><polygon class="cls-5" points="274.28 407.18 281.78 407.27 287.81 406.64 304.52 399.82 283.96 413.43 288.41 415.94 291.71 417.31 297.59 416.9 286.8 420.05 272.73 418.57 265.38 415.96 274.28 407.18 274.28 407.18 274.28 407.18"/><path d="M286.79,421.05h-.1l-14.06-1.49a.59.59,0,0,1-.23-.05l-7.35-2.61a1,1,0,0,1-.37-1.65l8.9-8.78a1,1,0,0,1,.71-.29l7.44.09,5.84-.61,16.57-6.77a1,1,0,0,1,1.26.46,1,1,0,0,1-.33,1.3l-19.2,12.71,3,1.68,3,1.26,5.65-.39a1,1,0,0,1,1.05.82,1,1,0,0,1-.7,1.13L287.07,421A.86.86,0,0,1,286.79,421.05ZM273,417.59,286.7,419l3.85-1.12L288,416.87l-.11-.05-4.45-2.52a1,1,0,0,1-.51-.84,1,1,0,0,1,.45-.87l12.11-8-7.33,3a1.34,1.34,0,0,1-.27.07l-6,.62h-.12l-7.08-.08-7.46,7.36Z"/><polygon class="cls-5" points="266.57 460.86 244.93 449.7 243.22 452.1 269.25 470 266.57 460.86 266.57 460.86 266.57 460.86"/><path d="M269.25,471a1,1,0,0,1-.57-.17l-26-17.91a1,1,0,0,1-.42-.65,1,1,0,0,1,.17-.75l1.71-2.4a1,1,0,0,1,1.27-.31L267,460a1,1,0,0,1,.51.61l2.68,9.14a1,1,0,0,1-.38,1.09A1,1,0,0,1,269.25,471Zm-24.62-19.15,22.87,15.74-1.77-6L245.25,451Z"/><polygon class="cls-5" points="216.31 356.63 225.48 348.38 234.5 342.64 240.07 342.67 254.57 346.77 248.87 339.09 234.65 335.52 222.21 336.83 213.59 341.54 214.28 347.95 216.31 356.63 216.31 356.63 216.31 356.63"/><path d="M216.31,357.63a1,1,0,0,1-.3-.05,1,1,0,0,1-.67-.73l-2-8.68a.5.5,0,0,1,0-.12l-.69-6.4a1,1,0,0,1,.51-1l8.62-4.7a.81.81,0,0,1,.37-.12l12.45-1.32a1.06,1.06,0,0,1,.35,0l14.22,3.57a1,1,0,0,1,.56.37l5.7,7.68a1,1,0,0,1,0,1.17,1,1,0,0,1-1.1.39l-14.37-4.06-5.14,0-8.7,5.52-9.11,8.2A1,1,0,0,1,216.31,357.63Zm-1-9.85,1.63,7,7.91-7.12.14-.1,9-5.73a.93.93,0,0,1,.54-.16l5.57,0a.75.75,0,0,1,.26,0L252,345l-3.74-5-13.7-3.44-12.07,1.28-7.85,4.29Z"/><polygon class="cls-5" points="208.09 398.11 217.68 402.64 225.21 406.37 223.66 408.55 208.13 404.05 208.09 398.11 208.09 398.11 208.09 398.11"/><path d="M223.66,409.55a.86.86,0,0,1-.28,0L207.85,405a1,1,0,0,1-.72-.95l0-5.95a1,1,0,0,1,.46-.85,1,1,0,0,1,1-.06l9.59,4.54,7.54,3.74a1,1,0,0,1,.53.65,1,1,0,0,1-.16.82l-1.55,2.18A1,1,0,0,1,223.66,409.55Zm-14.54-6.25,14.13,4.09.46-.64-6.48-3.21-8.13-3.85Z"/><polygon class="cls-5" points="187.79 427.03 195.66 420.14 201.13 418.46 207.23 418.21 212.9 422.25 212.63 430.93 211.7 439.15 209.46 444.13 200.38 444.88 188.36 439.6 186.77 431.23 187.79 427.03 187.79 427.03 187.79 427.03"/><path d="M200.37,447.88a3,3,0,0,1-1.2-.26l-12-5.28a3,3,0,0,1-1.74-2.18l-1.59-8.37a3,3,0,0,1,0-1.27l1-4.2a3,3,0,0,1,.94-1.55l7.87-6.88a2.87,2.87,0,0,1,1.09-.61l5.47-1.69a3.9,3.9,0,0,1,.76-.13l6.1-.25a3,3,0,0,1,1.87.56l5.66,4a3,3,0,0,1,1.26,2.53l-.28,8.69c0,.08,0,.16,0,.24l-.93,8.21a3.18,3.18,0,0,1-.25.9l-2.23,5a3,3,0,0,1-2.49,1.76l-9.09.75ZM191,437.48l9.88,4.35,6.56-.55,1.32-2.94.86-7.62.22-7-3.52-2.51-4.68.19-4.5,1.38-6.67,5.84-.64,2.65Z"/><polygon class="cls-8" points="192.49 431.04 199.47 436.01 204.07 436.01 208.24 433.39 207.15 430.31 201.7 426.43 198.12 424.53 196.38 425.59 192.49 431.04 192.49 431.04 192.49 431.04"/><path class="cls-9" d="M199.47,437a1,1,0,0,1-.58-.18l-7-5a1,1,0,0,1-.4-.65,1,1,0,0,1,.17-.74l3.89-5.45a.84.84,0,0,1,.29-.27l1.74-1.06a1,1,0,0,1,1,0l3.58,1.89.11.07,5.45,3.89a1,1,0,0,1,.36.48l1.09,3.08a1,1,0,0,1-.41,1.18l-4.17,2.62a1,1,0,0,1-.53.15Zm-5.58-6.21,5.9,4.21h4l3.25-2-.72-2-5.14-3.66-3-1.6-1.09.66Z"/><polygon class="cls-5" points="186.71 336.83 186.09 344.61 197.88 342.82 186.71 336.83 186.71 336.83 186.71 336.83"/><path d="M186.09,345.61a1,1,0,0,1-1-1.08l.62-7.78a1,1,0,0,1,.52-.8,1,1,0,0,1,1,0l11.17,6a1,1,0,0,1,.52,1.05,1,1,0,0,1-.84.82l-11.79,1.78Zm1.49-7.18-.39,5,7.57-1.15Z"/><polygon class="cls-5" points="171.21 340.57 160.39 351.59 149.32 365.73 131.45 393.09 110.63 436.1 104.14 451.2 110.09 460.37 120.27 467.3 137.01 473.33 153.51 477.86 142.96 482.5 146.23 484.83 151.89 484.27 154.66 483.62 157.87 483.27 157.84 493.44 158.41 503.71 154.95 495.66 147.64 492.08 117.79 477.7 104.53 469.55 96.06 460.23 92.69 456.18 146.15 360.5 161.69 343.31 171.21 340.57 171.21 340.57 171.21 340.57"/><polygon points="171.21 340.57 160.39 351.59 149.32 365.73 131.45 393.09 110.63 436.1 104.14 451.2 110.09 460.37 120.27 467.3 137.01 473.33 153.51 477.86 142.96 482.5 146.23 484.83 151.89 484.27 154.66 483.62 157.87 483.27 157.84 493.44 158.41 503.71 154.95 495.66 147.64 492.08 117.79 477.7 104.53 469.55 96.06 460.23 92.69 456.18 146.15 360.5 161.69 343.31 171.21 340.57 171.21 340.57 171.21 340.57"/><polygon class="cls-5" points="172.2 513.88 165.04 503.18 161.7 491.26 160.95 482.18 160.32 476.14 171.2 460.89 182.89 450.49 188.52 443.98 193.68 442.74 204.67 445.31 199.35 446.78 187.9 451.76 175.84 466.83 170.15 472.96 166.88 472.94 165.64 474.68 165.08 480.53 169.61 497.23 175.81 507.9 182.12 512.41 203.01 519.09 187.42 518.82 172.2 513.88 172.2 513.88 172.2 513.88"/><path d="M203,520.08h0l-15.59-.26a1.35,1.35,0,0,1-.29-.05l-15.22-4.94a1,1,0,0,1-.52-.39l-7.16-10.7a1.11,1.11,0,0,1-.14-.29l-3.33-11.92a1.16,1.16,0,0,1,0-.18l-.75-9.09-.62-6a1,1,0,0,1,.18-.69l10.88-15.25a.8.8,0,0,1,.15-.17l11.64-10.35,5.58-6.46a1,1,0,0,1,.52-.32l5.17-1.25a1.19,1.19,0,0,1,.46,0l11,2.58a1,1,0,0,1,0,1.93l-5.25,1.45-11.15,4.86-11.91,14.88-5.74,6.18a1,1,0,0,1-.74.32l-2.75,0-.78,1.1-.51,5.4,4.44,16.41,6,10.36,6,4.29,20.73,6.63a1,1,0,0,1,.68,1.12A1,1,0,0,1,203,520.08Zm-15.43-2.26,8.65.15-14.41-4.61a1,1,0,0,1-.28-.14l-6.32-4.5a1.08,1.08,0,0,1-.28-.32l-6.2-10.66a1.22,1.22,0,0,1-.1-.24l-4.52-16.71a1.1,1.1,0,0,1,0-.36l.55-5.85a1,1,0,0,1,.19-.48l1.24-1.75a1,1,0,0,1,.82-.41l2.83,0,5.39-5.81,12-15a.9.9,0,0,1,.38-.29l11.45-5,.13-.05,1.54-.42-6.93-1.63-4.62,1.12-5.42,6.27-.09.09L172,461.56l-10.6,14.86.59,5.66.75,9L166,502.76,172.84,513Z"/><polygon class="cls-5" points="184.22 434.34 181.69 427.28 180.04 423.14 177.65 421.43 172.32 418.29 167.03 409.58 169.75 393.78 172.95 381.92 174.13 379.8 174.66 377.22 171.17 372.43 167.47 369.79 162.55 365.62 159.65 360.93 158.72 357.63 158.71 353.02 161.2 349.54 162.04 355.73 167.31 363.1 173.19 367.3 172.28 356.13 176.42 361.38 182.08 351.61 181.65 360.51 179.26 374.92 175.23 392.09 172.31 402.18 174.9 409.61 176.18 411.51 182.83 405.4 192.57 405.12 191.18 418.59 184.22 434.34 184.22 434.34 184.22 434.34"/><path d="M184.22,435.34h0a1,1,0,0,1-.9-.66l-2.53-7.06-1.53-3.83-2.15-1.54-5.26-3.1a.92.92,0,0,1-.34-.34l-5.3-8.7a1.05,1.05,0,0,1-.13-.69l2.73-15.81L172,381.66a.92.92,0,0,1,.09-.23l1.1-2,.41-2-3.13-4.3-3.57-2.55-5-4.21a.91.91,0,0,1-.2-.24l-2.9-4.7a.8.8,0,0,1-.11-.25l-.94-3.3a1.24,1.24,0,0,1,0-.27V353a1,1,0,0,1,.19-.58l2.49-3.48a1,1,0,0,1,1.05-.39,1,1,0,0,1,.75.83l.81,6,5,7,4,2.85-.74-9a1,1,0,0,1,.64-1,1,1,0,0,1,1.15.31l3.23,4.1,4.91-8.5a1,1,0,0,1,1.87.55l-.43,8.9s0,.07,0,.11l-2.39,14.41-4.05,17.24-2.84,9.83,2.44,7,.56.83,5.8-5.32a.94.94,0,0,1,.64-.26l9.74-.29a1,1,0,0,1,.76.32,1,1,0,0,1,.26.78l-1.39,13.47a.84.84,0,0,1-.08.31l-7,15.75A1,1,0,0,1,184.22,435.34Zm-11.17-17.78,5.1,3,2.47,1.76a1,1,0,0,1,.35.44l1.65,4.14,1.7,4.74,5.88-13.32,1.26-12.18-8.23.24-6.38,5.86a1,1,0,0,1-1.5-.18l-1.28-1.9a.7.7,0,0,1-.11-.23l-2.59-7.43a1,1,0,0,1,0-.61l2.92-10.08,4-17.13,2.36-14.29.23-4.73-3.59,6.21a1,1,0,0,1-1.65.12l-2.09-2.65.64,7.87a1,1,0,0,1-.51.95,1,1,0,0,1-1.07-.06l-5.88-4.2a1,1,0,0,1-.24-.23l-5.26-7.37a1.12,1.12,0,0,1-.18-.45l-.5-3.69-.84,1.17v4.15l.86,3,2.74,4.44,4.79,4.07,3.64,2.59a1,1,0,0,1,.23.22l3.49,4.79a1,1,0,0,1,.17.79l-.53,2.58a1,1,0,0,1-.1.29l-1.12,2L170.72,394l-2.64,15.35Z"/><path class="cls-8" d="M183.18,411.86l2.22,2.86-.55,1.1-1.73.49-2.73-1-1.06-1.1-.18-1.52,1.65-1.35c.29.09.57.16.85.26s.28.16.44.2.22,0,.34,0a5,5,0,0,1,.49.12c.13,0,.27,0,.41.06s.57.18.57.18a9.55,9.55,0,0,1,1.62,1.27c.15.17,0,.68,0,.68-.25.8,0-.21,0,.54a4.31,4.31,0,0,1-.23.64c-.3.37-.47.88-.89,1.09-.23.12-.72-.28-.72-.28a2.2,2.2,0,0,1-.68,0,5.09,5.09,0,0,0-.64-.23c-1.51-1.18-2-.67-1.62-1.61l.15-.36a6.35,6.35,0,0,1,1-1.11c.49-.34.81-.14,1.22.06l.59.31c.28.08.56.12.69.49,0,.12-.1.24-.15.36-.39.44-.62,1.14-1.18,1.34-.73.25-.67-.75-.65-1,0-.07,0-.13.81-2.42Z"/><path class="cls-9" d="M184.24,417.4a1.6,1.6,0,0,1-.69-.17l-.16,0a1,1,0,0,1-.63,0l-2.72-1a.91.91,0,0,1-.37-.24l-1.06-1.1a1,1,0,0,1-.27-.57l-.19-1.52a1,1,0,0,1,.36-.89l1.66-1.35a1,1,0,0,1,.93-.19l.27.08.61.2a3.27,3.27,0,0,1,.33.14,1.32,1.32,0,0,1,.27,0,2.34,2.34,0,0,1,.38.09h0a1,1,0,0,1,.76.18l.45.14a.83.83,0,0,1,.29.16l.51.36a5.64,5.64,0,0,1,1.28,1.07,1.76,1.76,0,0,1,.16,1.6c0,.1,0,.21,0,.33a2.68,2.68,0,0,1-.28.89.94.94,0,0,1-.17.31,2.9,2.9,0,0,0-.19.29,2.64,2.64,0,0,1-1,1.06A1.19,1.19,0,0,1,184.24,417.4Z"/><polygon class="cls-5" points="296.8 436.32 316.2 403.85 320.46 399.63 326.06 388.84 318.52 394.34 300.36 420.58 296.8 436.32 296.8 436.32 296.8 436.32"/><path d="M296.8,437.32a1,1,0,0,1-.37-.07,1,1,0,0,1-.6-1.15l3.55-15.74a1,1,0,0,1,.15-.34l18.16-26.25a1.36,1.36,0,0,1,.24-.24l7.55-5.49A1,1,0,0,1,327,389.3l-5.6,10.79a.79.79,0,0,1-.19.25L317,404.47l-19.33,32.37A1,1,0,0,1,296.8,437.32ZM301.29,421l-2.13,9.44,16.18-27.1a1,1,0,0,1,.16-.19l4.15-4.11,3.57-6.88-4,2.9Z"/><path class="cls-5" d="M322.2,393.34,313.71,388l-5.62-5-3.21-2.83-2.72-7,.06-2.09,1.21-5,0-3.22,2.07-6.39,3.67-5,3.83-5.55,2.65-3-3-2.65L301.91,354l-4.34,9.38-2.16,10.94,8.57,9.71,7.88,13.72,3.39,2.64,2.13.81c2-2.4,4-4.8,4.82-7.89Z"/><path d="M317.38,402.23a1,1,0,0,1-.35-.06l-2.14-.82a.94.94,0,0,1-.26-.14l-3.39-2.64a1,1,0,0,1-.25-.29l-7.82-13.64L294.66,375a1,1,0,0,1-.23-.85l2.16-11a.81.81,0,0,1,.07-.22l4.35-9.38a.76.76,0,0,1,.12-.19l10.7-13.76a1,1,0,0,1,.7-.38,1,1,0,0,1,.75.25l3,2.65a1,1,0,0,1,.09,1.42l-2.61,3-3.8,5.5-3.59,4.87-2,6.08,0,3.06a1,1,0,0,1,0,.24l-1.18,4.9-.05,1.79,2.55,6.62,8.59,7.57,8.42,5.31a1,1,0,0,1,.44,1.1c-.88,3.3-3,5.83-5,8.27A1,1,0,0,1,317.38,402.23Zm-1.64-2.69,1.33.5a20.22,20.22,0,0,0,3.95-6.25l-7.84-5a.6.6,0,0,1-.13-.09L304.22,381a1,1,0,0,1-.27-.39l-2.72-7a1,1,0,0,1-.07-.39l.06-2.09a1.2,1.2,0,0,1,0-.2l1.18-4.89,0-3.1a1.13,1.13,0,0,1,0-.32l2.07-6.38a.8.8,0,0,1,.15-.29l3.67-5,3.8-5.52.08-.1,2-2.26-1.46-1.29-10,12.83-4.24,9.16-2,10.34,8.24,9.33a.66.66,0,0,1,.12.17l7.78,13.56Z"/><path class="cls-10" d="M318.91,398.29l16.82-25.13,3.07-5.51,4.12-3.86,8.17-8.85,9.1-15.17L364.7,333l11.41-14.56,1.93-2.59,4.8-11.11,2.88-8.52.42-5.34-.13-5.11-5.51-6.29-6-5.31-4.51.66-4.83,4.66-9.6,13.31-13.38,16.39L323.29,329l-18.24,20.67-4.93,6-1.78,4.85-.13,7,.92,8.66-1.26,7.1-2.41,3.94,6.53-7.8,7.92,8.42,5.64,5.33,3.36,5.1Z"/><path d="M318.91,401.29h0a3,3,0,0,1-2.49-1.35l-3.16-4.81L307.85,390l-.13-.13-5.6-6-4.36,5.21a3,3,0,0,1-4.86-3.49l2.11-3.46,1.09-6.12-.88-8.24c0-.13,0-.25,0-.38l.13-7a3,3,0,0,1,.18-1l1.78-4.85a3.13,3.13,0,0,1,.5-.87l4.94-6,.06-.08L321,327l.08-.09,18.79-19.68L353.16,291l9.55-13.23a2.23,2.23,0,0,1,.35-.4l4.83-4.67a3,3,0,0,1,1.64-.81l4.51-.66a3,3,0,0,1,2.42.72l6,5.31.27.27,5.51,6.3a3,3,0,0,1,.74,1.9l.13,5.11c0,.1,0,.21,0,.31l-.43,5.34a3,3,0,0,1-.15.72l-2.88,8.53a1.36,1.36,0,0,1-.09.23l-4.8,11.11a3,3,0,0,1-.35.6l-1.92,2.58L367.13,334.8l-4.41,6.57-9.06,15.11a3,3,0,0,1-.37.49l-8.17,8.86L345,366l-3.78,3.54-2.84,5.1a1.37,1.37,0,0,1-.13.2L321.4,400A3,3,0,0,1,318.91,401.29ZM312,385.74l5.58,5.27a3.24,3.24,0,0,1,.45.53l.87,1.33,14.24-21.28,3-5.4a2.83,2.83,0,0,1,.57-.72l4-3.79,7.88-8.55,8.94-14.91.08-.12,4.51-6.73.14-.18,11.41-14.56,1.67-2.25L380,303.71l2.72-8.06.38-4.81L383,287l-4.67-5.33-4.83-4.26-2.18.32-3.94,3.81L358,294.59l-.11.15-13.39,16.38-.15.18L325.5,331l-18.16,20.59-4.58,5.56-1.43,3.91-.12,6.33.9,8.48a2.53,2.53,0,0,1,0,.55,3,3,0,0,1,2.05.94Z"/><polygon class="cls-5" points="316.56 336.62 328.23 347.27 338.44 355.92 338.34 357.25 339.3 360.61 342.74 363.99 340.41 366.23 336.31 361.17 328.34 352 317.21 343.97 311.4 342.06 316.56 336.62 316.56 336.62 316.56 336.62"/><path d="M340.41,367.23h-.06a1,1,0,0,1-.71-.36l-4.11-5.06-7.87-9.06-10.91-7.87L311.09,343a1,1,0,0,1-.65-.7,1,1,0,0,1,.24-.94l5.16-5.44a1,1,0,0,1,1.4-.05l11.66,10.65,10.19,8.63a1,1,0,0,1,.35.84l-.09,1.15.84,2.93,3.25,3.2a1,1,0,0,1,.3.72,1,1,0,0,1-.31.72L341.11,367A1,1,0,0,1,340.41,367.23ZM313.22,341.6l4.31,1.42a1.38,1.38,0,0,1,.27.14l11.12,8a1.22,1.22,0,0,1,.17.15l8,9.18,3.44,4.23.81-.77-2.71-2.66a1,1,0,0,1-.26-.44l-1-3.35a1.08,1.08,0,0,1,0-.36l.06-.82L327.58,348l-11-10Z"/><polygon class="cls-5" points="339.57 313.37 347.25 314.79 350.86 317.97 355.55 323.18 362.15 328.65 363.79 333.66 367.18 330.23 364.17 327.57 363.08 322.33 358.86 318.61 347.09 309.3 343.22 308.02 339.57 313.37 339.57 313.37 339.57 313.37"/><path d="M363.79,334.66l-.23,0a1,1,0,0,1-.72-.67l-1.55-4.74L354.91,324l-.11-.1-4.65-5.16-3.36-3-7.4-1.37a1,1,0,0,1-.74-.59,1,1,0,0,1,.1-.95l3.64-5.35a1,1,0,0,1,1.14-.39l3.87,1.28a.83.83,0,0,1,.31.16l11.77,9.32,4.26,3.75a1,1,0,0,1,.32.55l1,4.91,2.76,2.44a1,1,0,0,1,.34.71,1.06,1.06,0,0,1-.29.74l-3.39,3.44A1,1,0,0,1,363.79,334.66Zm-7.55-12.2,6.54,5.42a1,1,0,0,1,.32.46l1.13,3.45,1.49-1.51-2.22-2a1,1,0,0,1-.31-.55l-1-4.91-4-3.5-11.59-9.17-3-1-2.36,3.46,6.17,1.13a1.09,1.09,0,0,1,.48.24l3.61,3.18.08.09Z"/><path class="cls-1" d="M616.5,347.9l10.58,13.21q8.68,12.45,17.38,24.91l22.78,44.88,10.65,20.86-3.75,7.68-22.25,16.25-15.4,10.21-14.3,3.67-.73,9.75-9.76,7.35-16.17,10.76-15.68,1.19-39.78,5.68-13.21-.19-11-5.64-3.75-3.1-3.22-22.31-5.7-20.93-.36-5.89-5-4.88-5.59-12.16-33.48-53.41L474,381.5l18.79-13,31.52-8.64,47.24-11.39,45-.55Z"/><path class="cls-2" d="M540.05,525.3l-13.21-.19a1,1,0,0,1-.44-.11l-10.95-5.65-.18-.11-3.74-3.1a1,1,0,0,1-.36-.63L508,493.26l-5.68-20.87a1.18,1.18,0,0,1,0-.2l-.33-5.51-4.75-4.61a1,1,0,0,1-.21-.3l-5.57-12.09-33.44-53.36a1,1,0,0,1,.16-1.26l15.18-14.29.12-.09,18.79-13a1,1,0,0,1,.3-.14L524,358.87l47.24-11.39a.91.91,0,0,1,.23,0l45-.55a1,1,0,0,1,.79.37l10.62,13.27,17.38,24.9.07.12,22.78,44.89,10.65,20.85a1,1,0,0,1,0,.9L675,459.88a1,1,0,0,1-.31.36l-22.28,16.28-15.4,10.22a1.2,1.2,0,0,1-.31.13l-13.61,3.49-.68,9a1,1,0,0,1-.39.72l-9.81,7.38-16.16,10.76a1.05,1.05,0,0,1-.48.16L580,519.61l-39.78,5.68h-.16Zm71.05-19.43,9.39-7.07.7-9.31a1,1,0,0,1,.75-.89L636.08,485l15.22-10.1,22.05-16.11,3.42-7-10.42-20.42L643.6,386.53l-17.3-24.79L616,348.9l-44.38.55-47.1,11.36-31.35,8.59L474.6,382.28,460.07,396l33,52.71a.24.24,0,0,1,.06.11l5.52,12,4.89,4.75a1,1,0,0,1,.3.66l.35,5.79,5.67,20.83a.53.53,0,0,1,0,.12l3.17,21.92,3.36,2.79,10.65,5.49,12.9.18,39.76-5.68,15.43-1.17Z"/><polygon class="cls-3" points="500.28 470.26 470.13 475 449.68 479.06 433.07 479.74 425.29 480.36 414.02 485.76 404.15 490.83 397.4 495.65 390.92 502.24 389.14 509.42 390.26 511.91 392.38 515.34 398.01 517.24 416.34 514.36 423.71 515.02 445.92 517.58 470.47 518.81 497.61 517.21 513.5 519.68 512.36 509.32 509.63 493.51 502.8 479.32 500.28 470.26 500.28 470.26 500.28 470.26"/><path d="M513,522.65l-15.58-2.42-26.81,1.58h-.33l-24.55-1.23-.19,0L423.44,518l-7-.63-18,2.82a2.87,2.87,0,0,1-1.42-.12l-5.63-1.9a3,3,0,0,1-1.6-1.27l-2.11-3.42a2.31,2.31,0,0,1-.18-.35l-1.12-2.49a3,3,0,0,1-.18-1.95l1.78-7.18a3.13,3.13,0,0,1,.77-1.39l6.48-6.59a3.26,3.26,0,0,1,.4-.34l6.75-4.82a3.6,3.6,0,0,1,.37-.22l9.94-5.1L424,477.65a2.78,2.78,0,0,1,1.06-.28l7.78-.62H433l16.38-.66,20.21-4,.12,0,30.16-4.74a3,3,0,0,1,3.35,2.16l2.44,8.8,6.72,13.95a2.82,2.82,0,0,1,.26.79l2.73,15.81c0,.06,0,.12,0,.18l1.15,10.36a3,3,0,0,1-.91,2.5,3,3,0,0,1-2.08.83Zm-6.29-28.22-6.66-13.81a3,3,0,0,1-.18-.5l-1.8-6.48L470.65,478,450.27,482a2.42,2.42,0,0,1-.47.05l-16.55.67-7.17.57-10.69,5.13-9.67,5-6.36,4.54-5.72,5.82-1.33,5.38.61,1.37,1.44,2.33,3.91,1.32,17.6-2.77a3.57,3.57,0,0,1,.73,0l7.45.67,22.12,2.55,24.29,1.22,27-1.59a3.47,3.47,0,0,1,.64,0l12,1.87-.7-6.38Z"/><polygon class="cls-4" points="589.5 424.17 599.67 417.61 603.28 413.3 606.47 401.47 602.65 387.73 599.97 376.05 603.74 370.37 604.89 369.55 611.36 363.44 612.19 362.84 615.38 355.85 616.54 350.53 616.3 349.55 612.99 343.62 608.09 339.17 599.77 336.7 587.22 337.35 570.21 343.04 561.1 348.85 560.07 354.99 567.91 372.43 568.59 374.36 582.76 407.79 589.5 424.17 589.5 424.17 589.5 424.17"/><path class="cls-2" d="M589.2,425.13a1,1,0,0,1-.63-.58l-6.73-16.37L567.65,374.7l-.65-1.86-7.84-17.44a.94.94,0,0,1-.07-.57l1-6.15a1,1,0,0,1,.44-.68l9.11-5.8.22-.11,17-5.68a.86.86,0,0,1,.27-.05l12.54-.66a1.27,1.27,0,0,1,.34,0l8.32,2.47a.94.94,0,0,1,.39.22l4.9,4.45a.82.82,0,0,1,.2.25l3.31,5.93a.77.77,0,0,1,.1.25l.24,1a1,1,0,0,1,0,.45l-1.16,5.32a1.18,1.18,0,0,1-.07.2l-3.19,7a.94.94,0,0,1-.32.39l-.79.56-6.41,6.07-.11.08-1,.71L601,376.25l2.58,11.21,3.81,13.74a1,1,0,0,1,0,.53l-3.19,11.83a.86.86,0,0,1-.2.39l-3.61,4.3a.85.85,0,0,1-.22.2L590,425a1,1,0,0,1-.54.16A1,1,0,0,1,589.2,425.13Zm13.17-12.3,3.06-11.36L601.68,388,599,376.28a1,1,0,0,1,.15-.78l3.77-5.69a1,1,0,0,1,.25-.26l1.09-.78,6.42-6.06.1-.09.63-.44,3-6.65,1.08-5-.15-.62-3.16-5.67-4.61-4.19-7.94-2.35-12.24.64L570.64,344l-8.63,5.5-.9,5.41,7.74,17.24.66,1.87,14.18,33.44L590,422.68l9-5.83Z"/><polygon class="cls-5" points="455.2 517.22 450.07 510.02 447.45 511.89 445.62 510.24 443.84 517.43 455.2 517.22 455.2 517.22 455.2 517.22"/><path d="M443.06,518.05a1,1,0,0,1-.19-.86l1.78-7.19a1,1,0,0,1,1.64-.5l1.23,1.11,2-1.4a1,1,0,0,1,.74-.17,1,1,0,0,1,.65.4l5.13,7.19a1,1,0,0,1-.8,1.59l-11.35.21h0A1,1,0,0,1,443.06,518.05Zm6.77-6.63L448,512.7a1,1,0,0,1-1.25-.07l-.59-.53-1.07,4.3,8.16-.15Z"/><path d="M531.48,527.91,507.7,521l1.67-5.76,1,.29-.35-12.1-4.88-18-3.78-13-7.9-20.88L492.31,450l-.11-.16-34.7-55.94a3.1,3.1,0,0,1-.43-1.26l-1.48-13.46a3,3,0,0,1,.8-2.4l8.54-9a3,3,0,0,1,1.51-.86l14-3.19a2.83,2.83,0,0,1,.77-.07l11.06.38,13.4-5.11,9.49-9.51,5.86-7.05c.11-.12.22-.24.34-.35l4.22-3.65a3,3,0,0,1,.91-.54l7.68-2.9a3.22,3.22,0,0,1,.68-.17l7.15-.9a3.71,3.71,0,0,1,.47,0l7,.2a3.11,3.11,0,0,1,.8.13l9.16,2.83a2.88,2.88,0,0,1,.88.43l6.32,4.59,4.83-1,13.48-6.47a3.25,3.25,0,0,1,.92-.27l14.89-1.9a3.07,3.07,0,0,1,1.64.25l12.62,5.85a3,3,0,0,1,1,.79l8.7,10.37,13.37,16.92a3.07,3.07,0,0,1,.28.42l15.31,27.86,26.89,50.43,5.71,9.37a3,3,0,0,1,.32,2.42l-1.34,4.5a3,3,0,0,1-.88,1.39l-10.93,9.73a3,3,0,0,1-.59.41l-17.43,9.21L640,490.65a2.31,2.31,0,0,1-.51.22l-14.29,4.66-.56,2.06a3.15,3.15,0,0,1-.41.87L617.08,509a3,3,0,0,1-.74.77l-10.77,7.68a2.76,2.76,0,0,1-.84.42l-11.4,3.61a3.87,3.87,0,0,1-.59.13l-60.1,6.4h-.32A3,3,0,0,1,531.48,527.91Zm71-15.61,9.94-7.09,6.52-9.69.87-3.14a3,3,0,0,1,2-2.06l15.56-5.07,15.23-8.31,17.14-9.06,10-8.92.72-2.41-5.07-8.31-.09-.15-26.91-50.48L633.19,370,620,353.34l-8.21-9.78-11.23-5.2L587,340.09l-13.37,6.41a3,3,0,0,1-.66.23l-6.48,1.39a3,3,0,0,1-2.4-.5l-7-5.08-8.3-2.55-6.32-.18-6.57.83-6.85,2.58-3.63,3.15-5.8,7c0,.07-.12.13-.18.2l-10,10.07a3,3,0,0,1-1.06.68l-14.56,5.55a2.94,2.94,0,0,1-1.17.19l-11.27-.38-12.71,2.9-7,7.32L463,391.27l34.29,55.28,1.32,1.85a3,3,0,0,1,.36.68L507,470.43c0,.08.05.15.08.22l3.83,13.15,5,18.39a2.75,2.75,0,0,1,.1.7l.34,11.76,3.07.51a2.69,2.69,0,0,1,.54.14l15.32,5.53-.33.91,56.86-6.06Z"/><polygon class="cls-5" points="491.04 471.59 488.17 477.25 483.51 473.02 452.76 484.76 446.68 496.99 447.78 484.7 449.09 479.16 477.88 473.42 480.68 472.74 491.04 471.59 491.04 471.59 491.04 471.59"/><path d="M446.41,498a1,1,0,0,1-.72-1.05l1.1-12.29a.59.59,0,0,1,0-.14l1.31-5.54a1,1,0,0,1,.78-.75l28.74-5.73,2.8-.68.13,0,10.36-1.14a1,1,0,0,1,.93.42,1,1,0,0,1,.07,1l-2.86,5.66a1,1,0,0,1-1.57.29l-4.21-3.83-29.81,11.39-5.9,11.87a1,1,0,0,1-.9.56A1.26,1.26,0,0,1,446.41,498ZM449.92,480l-1.15,4.85-.62,6.92,3.71-7.46a1,1,0,0,1,.54-.49l23.61-9Zm35.32-6.77,2.63,2.39,1.44-2.84Z"/><polygon class="cls-6" points="575.28 442.67 583.58 438.67 588.31 431.83 587.63 421.17 568.95 374.5 556.82 342.4 536.23 339.4 524.29 343.69 515.99 350.38 516.82 354.78 526.2 371.16 558.12 419.15 564.19 427.12 561.31 432.25 567.53 439.35 575.28 442.67 575.28 442.67 575.28 442.67"/><path class="cls-2" d="M574.88,443.59l-7.75-3.32a1,1,0,0,1-.35-.26l-6.22-7.1a1,1,0,0,1-.12-1.15L563,427.2l-5.71-7.5-31.95-48L516,355.28a1.15,1.15,0,0,1-.11-.31l-.84-4.41a1,1,0,0,1,.36-1l8.3-6.69a.83.83,0,0,1,.29-.16l11.94-4.29a1,1,0,0,1,.48,0l20.59,3a1,1,0,0,1,.8.64l12.12,32.08,18.68,46.67a1,1,0,0,1,.07.3l.68,10.67a1,1,0,0,1-.18.63l-4.73,6.84a1,1,0,0,1-.39.33l-8.3,4a1.08,1.08,0,0,1-.43.1A1.1,1.1,0,0,1,574.88,443.59Zm12.41-12-.65-10.16L568,374.86,556.09,343.3l-19.76-2.87-11.55,4.14-7.7,6.21.69,3.65L527,370.61l31.88,47.93,6.07,8a1,1,0,0,1,.08,1.1l-2.53,4.51,5.6,6.4,7.12,3.05,7.65-3.69Z"/><path d="M557.93,457.94a3,3,0,0,1-.71-3.6l3.92-7.85-1.34-9.84-4-6.44-14.24-14.07c-.1-.1-.19-.21-.28-.32l-20.92-27.49a3.94,3.94,0,0,1-.26-.4l-7.89-14.75a2.94,2.94,0,0,1-.35-1.25L510.78,352a3,3,0,0,1,.91-2.32l5.26-5.07a3,3,0,0,1,.34-.28l7.63-5.44a1.65,1.65,0,0,1,.36-.22l10.09-5.22a3,3,0,0,1,1.75-.32l14.09,1.79a2.81,2.81,0,0,1,.86.23l11.6,5.21a3.07,3.07,0,0,1,1.21,1l3.11,4.36a3,3,0,0,1,.5,2.33,3,3,0,0,1-1.36,2l-2.91,1.82-.76,1.54,18.47,43.36a.61.61,0,0,1,.05.12l11.43,30.31a3.08,3.08,0,0,1,.19.89l.34,6a2.94,2.94,0,0,1-.32,1.51l-2.3,4.61a3,3,0,0,1-1.26,1.29l-9.49,5.13a3.29,3.29,0,0,1-.91.32l-6,1-1.9,3a3,3,0,0,1-.86.89l-9.31,6.31a3,3,0,0,1-1.68.52A3,3,0,0,1,557.93,457.94Zm28.45-21.33,1.52-3-.27-4.75L576.39,399l-19-44.57a3,3,0,0,1,.07-2.51l1.74-3.54a3,3,0,0,1,1.11-1.22l.93-.58-.78-1.1L550,340.79l-12.73-1.61-9.06,4.7L521,349.06l-4.11,4,1,17.91,7.46,13.95L545.92,412l14.34,14.17a3.32,3.32,0,0,1,.44.55l4.54,7.29a2.88,2.88,0,0,1,.42,1.18l1.55,11.39,0,.28,2-3.27a3,3,0,0,1,2-1.37l6.83-1.18Z"/><polygon class="cls-7" points="516.38 354.56 530.59 378.62 551.38 409.16 560.09 421.36 563.35 425.94 563.44 431.13 563.62 434.62 566.39 442.18 565.39 448.15 556.67 454.37 546.78 456.17 539.15 454.7 533.71 449.38 519.01 426 516.52 422.51 508.04 412.46 504 406.79 496.75 400.78 488.85 397.54 484.71 393.59 482.07 389.88 479.31 382.32 480.4 372.33 481.68 365.83 483.3 363.03 489.81 359.7 497.75 354.7 506.83 353.15 516.38 354.56 516.38 354.56 516.38 354.56"/><path d="M546.21,459.11l-7.62-1.46a3,3,0,0,1-1.53-.81l-5.45-5.32a3.93,3.93,0,0,1-.44-.55l-14.65-23.3-2.37-3.32-8.41-10-.15-.19-3.81-5.35-6.59-5.47-7.48-3.06a3.06,3.06,0,0,1-.93-.61l-4.14-4a2.93,2.93,0,0,1-.37-.42l-2.64-3.71a3.24,3.24,0,0,1-.38-.71l-2.76-7.56a3,3,0,0,1-.17-1.36l1.1-10c0-.08,0-.16,0-.25l1.28-6.5a2.78,2.78,0,0,1,.35-.92l1.62-2.8a3,3,0,0,1,1.23-1.17l6.38-3.26,7.83-4.94a3,3,0,0,1,1.09-.42l9.09-1.55a3.29,3.29,0,0,1,.94,0l9.55,1.41A3,3,0,0,1,519,353l14.15,24,20.7,30.4,12,16.78a3,3,0,0,1,.56,1.69l.09,5.15.16,3,2.61,7.14a3.14,3.14,0,0,1,.14,1.52l-1,6a3,3,0,0,1-1.22,1.94l-8.72,6.22a3,3,0,0,1-1.2.51l-9.9,1.8a3.07,3.07,0,0,1-.53.05A2.76,2.76,0,0,1,546.21,459.11Zm16.42-12.68.67-4-2.49-6.82a2.66,2.66,0,0,1-.18-.88l-.19-3.48v-.11l-.07-4.26L548.9,410.84l-20.79-30.53-.11-.17-13.47-22.82-7.66-1.13-8,1.37-7.43,4.68-.24.14-5.71,2.92-.93,1.6-1.16,5.89-1,9.16,2.38,6.52,2.24,3.14,3.52,3.37,7.38,3a2.86,2.86,0,0,1,.77.46l7.25,6a3.17,3.17,0,0,1,.53.57l4,5.56,8.41,10,.15.19,2.48,3.49a.71.71,0,0,1,.1.14l14.51,23.08,4.55,4.44,6.18,1.2,8.69-1.58Z"/><polygon class="cls-5" points="562.32 433.25 558.49 429.73 553.17 425.96 549.29 425.12 542.28 429.13 538.79 436.22 540.88 440.98 543.05 446.33 543.86 450.69 546.9 455.42 556.42 453.56 565.39 448.15 565.46 440.87 562.32 433.25 562.32 433.25 562.32 433.25"/><path d="M546.06,456l-3-4.73a1.13,1.13,0,0,1-.14-.36l-.79-4.25L540,441.38l-2.08-4.76a1,1,0,0,1,0-.84l3.48-7.1a1,1,0,0,1,.41-.42l7-4a1,1,0,0,1,.71-.11l3.89.84a1.17,1.17,0,0,1,.36.16l5.32,3.77.1.08,3.82,3.52a.9.9,0,0,1,.25.36l3.14,7.62a1,1,0,0,1,.08.39l-.07,7.28a1,1,0,0,1-.49.85l-9,5.41a1,1,0,0,1-.32.12l-9.53,1.86a.62.62,0,0,1-.19,0A1,1,0,0,1,546.06,456Zm18.33-8.37.06-6.53-3-7.23-3.62-3.32-5.1-3.62-3.31-.71L543,429.84l-3.14,6.4,1.9,4.36L544,446a1.33,1.33,0,0,1,0,.19l.77,4.16,2.57,4,8.69-1.7Z"/><polygon class="cls-8" points="563.18 439.53 559.08 434.24 554.26 432.09 548.44 440.52 547.13 443.75 549.58 448.58 552.88 449.51 560.32 445.19 563.18 439.53 563.18 439.53 563.18 439.53"/><path d="M552.61,450.47l-3.3-.93a1,1,0,0,1-.62-.51l-2.45-4.82a1,1,0,0,1,0-.83l1.31-3.24a1.14,1.14,0,0,1,.1-.19l5.83-8.43a1,1,0,0,1,1.23-.34l4.82,2.15a.93.93,0,0,1,.38.3l4.11,5.29a1,1,0,0,1,.1,1.06l-2.87,5.66a1,1,0,0,1-.39.42l-7.44,4.32a1,1,0,0,1-.5.13A.84.84,0,0,1,552.61,450.47Zm9.4-10.83-3.57-4.59-3.83-1.71L549.32,441l-1.1,2.71,2.06,4,2.46.7,6.82-3.95Z"/><polygon class="cls-5" points="526.33 422.43 531.49 421.37 536.81 420.54 540.08 418.2 541.26 415.71 540.18 414.19 536.54 414.16 532.83 416.8 529.19 419.07 526.33 422.43 526.33 422.43 526.33 422.43"/><path d="M525.46,422.93a1,1,0,0,1,.1-1.15l2.87-3.36a.87.87,0,0,1,.23-.2l3.59-2.24,3.71-2.64a1,1,0,0,1,.59-.18l3.64,0a1,1,0,0,1,.8.42l1.09,1.52a1,1,0,0,1,.09,1L541,418.63a.94.94,0,0,1-.32.39l-3.27,2.33a.91.91,0,0,1-.42.17l-5.28.83-5.16,1.06-.2,0A1,1,0,0,1,525.46,422.93Zm13.83-5.39.82-1.72-.45-.64-2.81,0-3.49,2.49-3.51,2.18-.88,1,2.37-.49,5.08-.8Z"/><polygon class="cls-5" points="454.07 392.1 492.11 458.34 493.81 467.64 496.3 471.13 499.75 469.98 501.24 477.14 507.49 489.12 511.4 497.84 515.38 501.57 517.87 498.15 516.95 487.64 509.15 471.17 511.14 463.83 516.53 455.71 519.5 446.04 502.81 463.2 503.97 448.24 502.6 442.63 497.37 455.57 465.11 398.36 461.07 392.7 459.36 390.3 454.07 392.1 454.07 392.1 454.07 392.1"/><path d="M514.7,502.3l-4-3.73a.9.9,0,0,1-.23-.32l-3.89-8.67-6.24-12a.82.82,0,0,1-.1-.26l-1.26-6-2.39.79a1,1,0,0,1-1.13-.37L493,468.23a.88.88,0,0,1-.17-.4l-1.68-9.14L453.2,392.6a1,1,0,0,1-.07-.85,1,1,0,0,1,.61-.59l5.29-1.8a1,1,0,0,1,1.14.36l5.75,8.06.06.09,31.24,55.41,4.46-11a1,1,0,0,1,1.89.14l1.37,5.6a1.08,1.08,0,0,1,0,.31L504,460.52l14.76-15.18a1,1,0,0,1,1.67,1l-3,9.68a1.15,1.15,0,0,1-.12.25l-5.3,8-1.86,6.83,7.64,16.13a1,1,0,0,1,.09.34l.93,10.51a1,1,0,0,1-.19.68l-2.49,3.42a1,1,0,0,1-.71.41h-.1A1,1,0,0,1,514.7,502.3ZM516,487.9l-7.73-16.3a1,1,0,0,1-.06-.69l2-7.34a1,1,0,0,1,.13-.29l5.31-8,1.71-5.58-13.81,14.2a1,1,0,0,1-1.12.21,1,1,0,0,1-.59-1l1.15-14.8-.59-2.44L498.29,456a1,1,0,0,1-.86.62,1,1,0,0,1-.93-.5L464.26,398.9,459,391.49l-3.43,1.17L493,457.84a1,1,0,0,1,.12.32l1.67,9.09,1.92,2.7,2.76-.92a1,1,0,0,1,.81.08,1,1,0,0,1,.48.67l1.46,7,6.21,11.91,3.83,8.54,3,2.82,1.6-2.2Z"/><polygon class="cls-5" points="502.28 406.7 494.79 406.79 488.75 406.16 472.05 399.33 492.6 412.94 488.15 415.46 484.85 416.83 478.97 416.42 489.77 419.57 503.83 418.09 511.18 415.48 502.28 406.7 502.28 406.7 502.28 406.7"/><path d="M489.49,420.53l-10.8-3.15a1,1,0,0,1-.7-1.14,1,1,0,0,1,1.05-.82l5.65.39,3-1.25,3-1.68-19.2-12.71a1,1,0,0,1-.33-1.3,1,1,0,0,1,1.26-.46L489,405.18l5.83.6,7.44-.08a1,1,0,0,1,.72.28l8.89,8.78a1,1,0,0,1-.37,1.66L504.17,419l-.23.05-14.07,1.48h-.1A.86.86,0,0,1,489.49,420.53Zm19.85-5.46-7.46-7.37-7.08.09h-.12l-6-.63a.89.89,0,0,1-.28-.07l-7.33-3,12.12,8a1,1,0,0,1-.06,1.7l-4.46,2.52-.1.05L486,417.43l3.85,1.12,13.75-1.45Z"/><polygon class="cls-5" points="510 460.37 531.63 449.22 533.34 451.62 507.31 469.52 510 460.37 510 460.37 510 460.37"/><path d="M506.73,470.33a1,1,0,0,1-.38-1.09l2.69-9.15a.93.93,0,0,1,.5-.6l21.63-11.16a1,1,0,0,1,1.27.31l1.71,2.39a1,1,0,0,1,.17.76,1,1,0,0,1-.42.65l-26,17.9a1,1,0,0,1-.57.18A1,1,0,0,1,506.73,470.33Zm24.59-19.83-20.48,10.57-1.77,6,22.86-15.73Z"/><polygon class="cls-5" points="560.25 356.14 551.08 347.89 542.06 342.16 536.49 342.19 521.99 346.29 527.69 338.6 541.91 335.04 554.36 336.35 562.97 341.05 562.28 347.46 560.25 356.14 560.25 356.14 560.25 356.14"/><path d="M559.58,356.89l-9.11-8.2-8.7-5.53-5.14,0-14.37,4.06a1,1,0,0,1-1.09-.4,1,1,0,0,1,0-1.16l5.69-7.68a1,1,0,0,1,.56-.38l14.23-3.56a1,1,0,0,1,.34,0l12.45,1.32a.94.94,0,0,1,.37.11l8.62,4.71a1,1,0,0,1,.51,1l-.68,6.41a.5.5,0,0,0,0,.12l-2,8.68a1,1,0,0,1-.68.73,1,1,0,0,1-.3,0A1,1,0,0,1,559.58,356.89Zm2.32-15.28-7.85-4.29L542,336.05l-13.7,3.44-3.74,5,11.68-3.3a.84.84,0,0,1,.27,0l5.57,0a.86.86,0,0,1,.54.16l9,5.73.13.1,7.91,7.12,1.63-7Z"/><polygon class="cls-5" points="568.47 397.62 558.88 402.16 551.35 405.89 552.91 408.07 568.44 403.57 568.47 397.62 568.47 397.62 568.47 397.62"/><path d="M552.09,408.65l-1.55-2.18a1,1,0,0,1,.37-1.48l7.55-3.73,9.58-4.54a1,1,0,0,1,1.43.91l0,5.94a1,1,0,0,1-.73,1L553.19,409a1,1,0,0,1-.28,0A1,1,0,0,1,552.09,408.65Zm15.37-9.44-8.13,3.85-6.48,3.2.46.65,14.13-4.1Z"/><polygon class="cls-5" points="588.77 426.54 580.9 419.66 575.43 417.98 569.33 417.73 563.66 421.77 563.94 430.45 564.87 438.66 567.1 443.64 576.19 444.39 588.2 439.11 589.79 430.74 588.77 426.54 588.77 426.54 588.77 426.54"/><path d="M575.94,447.38l-9.08-.75a3,3,0,0,1-2.49-1.76l-2.24-5a3,3,0,0,1-.25-.89l-.92-8.22a1.94,1.94,0,0,1,0-.24l-.28-8.68a3,3,0,0,1,1.26-2.54l5.67-4a3,3,0,0,1,1.86-.55l6.1.25a2.82,2.82,0,0,1,.76.13l5.47,1.68a3.21,3.21,0,0,1,1.1.61l7.86,6.89a2.88,2.88,0,0,1,.94,1.54l1,4.2a3,3,0,0,1,0,1.27l-1.59,8.37a3,3,0,0,1-1.74,2.19l-12,5.28a3,3,0,0,1-1.21.25Zm10.78-16.56-.64-2.64-6.67-5.84L574.92,421l-4.69-.2-3.52,2.52.22,7,.86,7.63,1.32,2.94,6.57.54,9.87-4.34Z"/><polygon class="cls-8" points="584.07 430.55 577.1 435.53 572.49 435.52 568.32 432.91 569.41 429.83 574.86 425.94 578.44 424.05 580.18 425.11 584.07 430.55 584.07 430.55 584.07 430.55"/><path class="cls-9" d="M577.1,436.53h-4.61a1,1,0,0,1-.53-.15l-4.17-2.61a1,1,0,0,1-.41-1.19l1.09-3.08a1.07,1.07,0,0,1,.36-.48l5.45-3.88.11-.07,3.58-1.9a1,1,0,0,1,1,0l1.74,1.06a1,1,0,0,1,.3.28l3.88,5.44a1,1,0,0,1,.17.75,1,1,0,0,1-.4.65l-7,5a1,1,0,0,1-.58.19Zm2.39-10.68-1.08-.65-3,1.6-5.14,3.66-.72,2,3.25,2h4l5.89-4.21Z"/><polygon class="cls-5" points="589.86 336.34 590.47 344.12 578.68 342.34 589.86 336.34 589.86 336.34 589.86 336.34"/><path d="M590.32,345.11l-11.79-1.78a1,1,0,0,1-.83-.82,1,1,0,0,1,.51-1.05l11.17-6a1,1,0,0,1,1.47.8l.62,7.78a1,1,0,0,1-1,1.08Zm-8.52-3.31,7.58,1.15-.4-5Z"/><polygon class="cls-5" points="605.35 340.09 616.17 351.11 627.24 365.24 645.11 392.6 665.93 435.62 672.42 450.71 666.47 459.89 656.29 466.82 639.55 472.84 623.05 477.38 633.6 482.02 630.33 484.35 624.67 483.79 621.9 483.13 618.7 482.79 618.72 492.96 618.15 503.23 621.61 495.17 628.93 491.6 658.77 477.21 672.03 469.07 680.5 459.74 683.87 455.7 630.41 360.02 614.87 342.83 605.35 340.09 605.35 340.09 605.35 340.09"/><polygon points="605.35 340.09 616.17 351.11 627.24 365.24 645.11 392.6 665.93 435.62 672.42 450.71 666.47 459.89 656.29 466.82 639.55 472.84 623.05 477.38 633.6 482.02 630.33 484.35 624.67 483.79 621.9 483.13 618.7 482.79 618.72 492.96 618.15 503.23 621.61 495.17 628.93 491.6 658.77 477.21 672.03 469.07 680.5 459.74 683.87 455.7 630.41 360.02 614.87 342.83 605.35 340.09 605.35 340.09 605.35 340.09"/><polygon class="cls-5" points="604.36 513.39 611.53 502.7 614.86 490.78 615.62 481.7 616.24 475.66 605.36 460.41 593.67 450.01 588.04 443.5 582.88 442.25 571.89 444.83 577.21 446.29 588.66 451.28 600.72 466.35 606.41 472.48 609.68 472.45 610.92 474.19 611.48 480.04 606.96 496.75 600.76 507.42 594.44 511.93 573.55 518.6 589.14 518.33 604.36 513.39 604.36 513.39 604.36 513.39"/><path d="M572.57,518.76a1,1,0,0,1,.68-1.11L594,511l6-4.29,6-10.37,4.44-16.4-.52-5.4-.78-1.1-2.75,0a1,1,0,0,1-.74-.32L599.94,467,588,452.1l-11.15-4.86-5.25-1.45a1,1,0,0,1,0-1.94l11-2.57a.9.9,0,0,1,.46,0l5.17,1.25a1,1,0,0,1,.52.32l5.58,6.45L606,459.66l.15.17,10.88,15.25a1,1,0,0,1,.18.68l-.63,6-.75,9.08,0,.19L612.49,503a1,1,0,0,1-.13.28L605.19,514a1,1,0,0,1-.52.4l-15.22,4.93a.93.93,0,0,1-.29.05l-15.59.27h0A1,1,0,0,1,572.57,518.76Zm31.15-6.21,6.89-10.28,3.26-11.67.75-9,.59-5.66-10.6-14.85L593,450.75l-.1-.09-5.41-6.26-4.62-1.12-6.94,1.63,1.54.42.13.05,11.45,5a1.1,1.1,0,0,1,.38.29l12,15,5.38,5.81,2.83,0a1,1,0,0,1,.82.42l1.25,1.74a1.12,1.12,0,0,1,.18.49l.55,5.85a.74.74,0,0,1,0,.36L607.92,497a.87.87,0,0,1-.1.24l-6.2,10.67a1,1,0,0,1-.28.31L595,512.74a1,1,0,0,1-.28.14l-14.4,4.6,8.64-.15Z"/><polygon class="cls-5" points="592.34 433.86 594.87 426.8 596.52 422.66 598.92 420.95 604.24 417.81 609.53 409.1 606.81 393.29 603.61 381.44 602.43 379.32 601.9 376.74 605.39 371.95 609.09 369.31 614.01 365.14 616.91 360.44 617.85 357.15 617.85 352.54 615.36 349.05 614.52 355.25 609.25 362.62 603.37 366.81 604.28 355.64 600.14 360.9 594.48 351.13 594.91 360.02 597.3 374.43 601.33 391.61 604.25 401.69 601.66 409.13 600.39 411.02 593.73 404.92 583.99 404.63 585.38 418.11 592.34 433.86 592.34 433.86 592.34 433.86"/><path d="M591.43,434.26l-7-15.75a1,1,0,0,1-.08-.3L583,404.74a1,1,0,0,1,.26-.79,1.07,1.07,0,0,1,.76-.32l9.74.29a1,1,0,0,1,.65.26l5.8,5.32.55-.82,2.44-7-2.84-9.82-4.05-17.24-2.38-14.41s0-.08,0-.12l-.43-8.9a1,1,0,0,1,.72-1,1,1,0,0,1,1.15.45l4.92,8.5,3.23-4.1a1,1,0,0,1,1.78.7l-.74,9,4-2.85,5-7,.81-5.95a1,1,0,0,1,1.81-.45l2.48,3.49a1,1,0,0,1,.19.58v4.61a1.26,1.26,0,0,1,0,.27l-.94,3.3a.91.91,0,0,1-.11.25l-2.9,4.69a.91.91,0,0,1-.2.24l-5,4.22-3.57,2.55L603,377l.41,2,1.1,2a1.6,1.6,0,0,1,.1.23l3.21,11.94,2.73,15.81a1,1,0,0,1-.13.69l-5.3,8.71a.92.92,0,0,1-.34.34l-5.25,3.09-2.16,1.54-1.53,3.83-2.53,7.06a1,1,0,0,1-.9.67h0A1,1,0,0,1,591.43,434.26Zm17.06-25.36-2.65-15.35-3.16-11.73-1.12-2a1,1,0,0,1-.11-.29l-.53-2.58a1,1,0,0,1,.17-.79l3.49-4.79a1,1,0,0,1,.23-.23l3.64-2.59,4.8-4.06L616,360l.86-3v-4.15l-.84-1.17-.5,3.69a.93.93,0,0,1-.18.45l-5.26,7.37a1,1,0,0,1-.23.23l-5.89,4.2a1,1,0,0,1-1.58-.9l.65-7.87-2.1,2.66a1,1,0,0,1-1.65-.12l-3.59-6.21.23,4.73,2.36,14.28,4,17.13,2.92,10.08a1,1,0,0,1,0,.61l-2.58,7.44a1.27,1.27,0,0,1-.12.23l-1.27,1.89a1.06,1.06,0,0,1-.72.44,1,1,0,0,1-.79-.26l-6.38-5.85-8.23-.24,1.26,12.18,5.89,13.31,1.69-4.73,1.65-4.14a1,1,0,0,1,.35-.45l2.47-1.75,5.11-3Z"/><path class="cls-8" d="M593.38,411.38l-2.22,2.85.55,1.1,1.74.5,2.72-1,1.06-1.1.19-1.51-1.66-1.35c-.28.08-.57.16-.85.26s-.28.15-.44.19a1.79,1.79,0,0,1-.33,0c-.17,0-.33.09-.49.12l-.42.07-.57.17a9.61,9.61,0,0,0-1.62,1.28c-.14.17,0,.67,0,.67.25.8,0-.2,0,.55a6.72,6.72,0,0,0,.23.64c.3.36.48.88.9,1.09.23.12.72-.28.72-.28a2.14,2.14,0,0,0,.67,0,3.88,3.88,0,0,1,.64-.23c1.52-1.18,2-.67,1.62-1.61,0-.13-.1-.24-.14-.36a6.85,6.85,0,0,0-1-1.12c-.48-.33-.81-.13-1.22.07l-.59.3c-.28.09-.56.13-.68.49,0,.13.09.24.14.36.39.45.62,1.15,1.19,1.34.72.26.66-.74.64-1,0-.07,0-.14-.81-2.42Z"/><path class="cls-9" d="M592.32,416.91a1.6,1.6,0,0,0,.69-.17l.16.05a1,1,0,0,0,.63,0l2.72-1a1,1,0,0,0,.37-.24l1.06-1.1a1,1,0,0,0,.27-.57l.19-1.52a1,1,0,0,0-.36-.9l-1.66-1.35a1,1,0,0,0-.92-.18l-.27.08-.62.19a2.37,2.37,0,0,0-.32.15,1.37,1.37,0,0,0-.28,0l-.38.08h-.05a1.07,1.07,0,0,0-.76.18l-.45.15a.76.76,0,0,0-.29.16c-.16.12-.34.24-.51.35a5.65,5.65,0,0,0-1.27,1.07,1.73,1.73,0,0,0-.17,1.6c0,.1,0,.21,0,.34a3,3,0,0,0,.28.89,1.11,1.11,0,0,0,.17.3,2.9,2.9,0,0,1,.19.29,2.59,2.59,0,0,0,1,1.06A1.07,1.07,0,0,0,592.32,416.91Z"/><polygon class="cls-5" points="479.76 435.84 460.36 403.36 456.1 399.15 450.5 388.36 458.05 393.86 476.21 420.1 479.76 435.84 479.76 435.84 479.76 435.84"/><path d="M478.9,436.35,459.57,404l-4.17-4.13a.92.92,0,0,1-.19-.25l-5.6-10.79a1,1,0,0,1,1.48-1.27l7.54,5.5a1.09,1.09,0,0,1,.24.24L477,419.53a1.19,1.19,0,0,1,.15.35l3.56,15.74a1,1,0,0,1-.61,1.15,1,1,0,0,1-.37.07A1,1,0,0,1,478.9,436.35Zm-21.58-41.78-4-2.9,3.58,6.88,4.15,4.1a1,1,0,0,1,.15.2l16.18,27.09-2.13-9.43Z"/><path class="cls-5" d="M454.36,392.86l8.49-5.35,5.62-4.95,3.21-2.84,2.72-7-.06-2.09-1.2-5v-3.22L471.08,356l-3.67-5-3.82-5.55-2.66-3,3-2.66,10.71,13.76,4.34,9.37,2.16,10.95-8.57,9.7L464.7,397.3l-3.38,2.63-2.14.82c-2-2.4-4-4.8-4.82-7.89Z"/><path d="M458.41,401.39c-2-2.45-4.14-5-5-8.27a1,1,0,0,1,.43-1.11l8.42-5.3,8.59-7.58,2.55-6.62-.05-1.78-1.18-4.91a.86.86,0,0,1,0-.23v-3.07l-2-6.08-3.59-4.86-3.79-5.5-2.62-3a1,1,0,0,1,.09-1.41l3-2.66a1,1,0,0,1,.75-.24,1,1,0,0,1,.7.38l10.71,13.75a1.28,1.28,0,0,1,.11.2l4.35,9.37a.88.88,0,0,1,.07.23l2.16,10.94a1,1,0,0,1-.23.86l-8.5,9.63-7.83,13.64a1,1,0,0,1-.25.29l-3.39,2.63a1.35,1.35,0,0,1-.26.15l-2.13.81a.92.92,0,0,1-.36.07A1,1,0,0,1,458.41,401.39Zm5.53-4.76,7.77-13.56.12-.16,8.24-9.33-2-10.35-4.24-9.16-10-12.82-1.47,1.29,2,2.26.07.09,3.8,5.53,3.68,5a.92.92,0,0,1,.14.28l2.07,6.39a1.12,1.12,0,0,1,0,.31v3.1l1.17,4.89a.76.76,0,0,1,0,.21l.06,2.09a1.07,1.07,0,0,1-.07.39l-2.71,7a1,1,0,0,1-.28.39l-8.83,7.79-.13.1-7.84,4.94a20.26,20.26,0,0,0,3.95,6.26l1.33-.51Z"/><path class="cls-10" d="M457.66,397.81l-16.83-25.14-3.06-5.5-4.12-3.86q-4.09-4.43-8.17-8.86l-9.1-15.17-4.51-6.73L400.45,318l-1.92-2.59-4.81-11.11-2.88-8.52-.42-5.34.13-5.11,5.51-6.29,6-5.32,4.51.67,4.83,4.66,9.6,13.31,13.38,16.38,18.87,19.77,18.24,20.67,4.93,6,1.78,4.85.13,7-.92,8.66,1.27,7.1,2.4,3.94-6.52-7.8-7.93,8.41L461,392.71l-3.35,5.1Z"/><path d="M455.16,399.48l-16.82-25.14-.13-.21L435.37,369l-3.78-3.54-.15-.16-8.17-8.85a3.5,3.5,0,0,1-.37-.49l-9.06-15.11-4.4-6.57L398,319.79l-1.92-2.59a2.77,2.77,0,0,1-.35-.6L391,305.49l-.09-.23L388,296.74a3.08,3.08,0,0,1-.15-.72l-.42-5.34c0-.11,0-.21,0-.32l.13-5.11a3,3,0,0,1,.74-1.9l5.51-6.29a2.37,2.37,0,0,1,.28-.27l6-5.32a3,3,0,0,1,2.42-.71l4.51.66a3,3,0,0,1,1.65.81l4.83,4.66a4.23,4.23,0,0,1,.34.4l9.55,13.24,13.25,16.23,18.79,19.68a.6.6,0,0,1,.08.08l18.24,20.68.06.08,4.94,6a3.28,3.28,0,0,1,.5.87L481,359a2.7,2.7,0,0,1,.18,1l.13,7a2.29,2.29,0,0,1,0,.37l-.88,8.24,1.09,6.12,2.11,3.47a3,3,0,0,1-4.86,3.48l-4.36-5.21-5.6,6-.13.12-5.39,5.1-3.16,4.81a3,3,0,0,1-2.49,1.35h0A3,3,0,0,1,455.16,399.48Zm17.23-22.58a3,3,0,0,1,2.05-.94,3.49,3.49,0,0,1,0-.56l.9-8.48-.12-6.33-1.43-3.9-4.58-5.56-18.16-20.59-18.83-19.73-.15-.17-13.39-16.39-.1-.14L409.14,281l-3.94-3.81-2.18-.32-4.83,4.27-4.67,5.33-.1,3.87.38,4.81,2.72,8.05,4.62,10.68,1.67,2.25,11.42,14.55.13.18,4.51,6.73.08.13,8.94,14.91,7.89,8.55,4,3.78a3.08,3.08,0,0,1,.56.73l3,5.39,14.23,21.28.87-1.32a3.24,3.24,0,0,1,.45-.53l5.58-5.28Z"/><polygon class="cls-5" points="460 336.13 448.33 346.78 438.12 355.44 438.23 356.77 437.26 360.12 433.82 363.51 436.15 365.74 440.26 360.69 448.23 351.52 459.35 343.49 465.16 341.58 460 336.13 460 336.13 460 336.13"/><path d="M435.46,366.46l-2.33-2.23a1,1,0,0,1-.31-.71,1,1,0,0,1,.3-.72l3.25-3.21.85-2.92-.1-1.16a1,1,0,0,1,.35-.84L447.66,346l11.66-10.64a1,1,0,0,1,1.4.05l5.16,5.44a1,1,0,0,1,.25.93,1,1,0,0,1-.66.71l-5.66,1.86-10.9,7.87L441,361.32l-4.11,5.05a1,1,0,0,1-.71.37h-.06A1,1,0,0,1,435.46,366.46ZM460,337.53l-11,10-9.82,8.32.06.82a1.1,1.1,0,0,1,0,.36l-1,3.35a1.06,1.06,0,0,1-.26.43l-2.7,2.67.8.77L439.5,360l8-9.17a.8.8,0,0,1,.17-.15l11.12-8a1,1,0,0,1,.28-.14l4.31-1.42Z"/><polygon class="cls-5" points="436.99 312.89 429.32 314.3 425.7 317.49 421.02 322.7 414.42 328.16 412.77 333.18 409.39 329.74 412.4 327.09 413.48 321.85 417.7 318.13 429.47 308.81 433.34 307.54 436.99 312.89 436.99 312.89 436.99 312.89"/><path d="M412.06,333.88l-3.39-3.43a1,1,0,0,1,.05-1.46l2.77-2.43,1-4.92a1,1,0,0,1,.32-.54l4.26-3.76L428.85,308a1.17,1.17,0,0,1,.31-.17l3.87-1.27a1,1,0,0,1,1.14.39l3.65,5.34a1,1,0,0,1-.65,1.55l-7.4,1.37-3.36,3-4.65,5.17-.11.1-6.37,5.28-1.56,4.74a1,1,0,0,1-.72.66.85.85,0,0,1-.23,0A1,1,0,0,1,412.06,333.88ZM425,316.82l.08-.08,3.61-3.19a1,1,0,0,1,.48-.23l6.17-1.14-2.36-3.46-3,1-11.59,9.17-4,3.5-1,4.91a1.1,1.1,0,0,1-.32.55l-2.22,2,1.49,1.52,1.14-3.46a.9.9,0,0,1,.31-.46l6.54-5.42Z"/></svg>